<?xml version="1.0" standalone="no"?>
<!DOCTYPE svg PUBLIC "-//W3C//DTD SVG 20010904//EN"
 "http://www.w3.org/TR/2001/REC-SVG-20010904/DTD/svg10.dtd">
<svg version="1.0" xmlns="http://www.w3.org/2000/svg"
 width="512.000000pt" height="512.000000pt" viewBox="0 0 512.000000 512.000000"
 preserveAspectRatio="xMidYMid meet">
<metadata>
Created by potrace 1.14, written by Peter Selinger 2001-2017
</metadata>
<g transform="translate(0.000000,512.000000) scale(0.100000,-0.100000)"
fill="#000000" stroke="none">
<path d="M2379 5116 c-2 -2 -35 -6 -74 -9 -213 -19 -512 -93 -715 -177 -124
-52 -185 -82 -365 -184 -81 -45 -285 -199 -374 -281 -321 -295 -547 -626 -689
-1010 -39 -104 -95 -290 -106 -352 -2 -15 -9 -53 -15 -83 -29 -160 -36 -240
-35 -470 0 -113 3 -232 8 -265 4 -33 10 -76 12 -95 8 -61 20 -123 41 -210 8
-36 16 -69 17 -75 28 -129 115 -354 204 -525 264 -507 702 -921 1222 -1155
197 -88 443 -163 635 -191 22 -3 51 -8 65 -10 79 -13 176 -18 345 -19 189 0
312 9 425 30 14 3 41 7 60 10 238 39 576 165 807 302 267 157 470 330 687 583
176 205 343 502 441 781 44 124 38 104 75 259 28 118 35 154 45 232 26 199 28
535 4 683 -4 28 -10 68 -13 90 -3 22 -7 47 -9 55 -2 8 -7 33 -11 55 -39 203
-140 482 -247 681 -386 719 -1093 1213 -1899 1329 -19 3 -53 7 -75 11 -46 6
-460 16 -466 10z m304 -517 c274 -92 350 -434 142 -642 -37 -37 -148 -97 -185
-100 -20 -1 -20 -10 -20 -383 l0 -381 70 -17 c67 -17 146 -53 183 -85 17 -14
25 -7 123 91 l106 105 -17 33 c-23 44 -17 162 10 205 56 90 119 128 215 128
132 1 233 -91 244 -223 15 -175 -169 -312 -329 -245 l-39 16 -104 -104 -103
-103 36 -60 c33 -54 75 -167 75 -200 0 -12 59 -14 381 -12 l382 3 12 42 c57
193 254 310 453 268 115 -24 213 -103 266 -215 28 -58 31 -75 31 -160 0 -86
-3 -101 -31 -160 -66 -137 -183 -217 -331 -224 -32 -1 -74 1 -93 6 -19 5 -39
10 -45 11 -37 9 -109 54 -149 93 -48 48 -106 152 -106 191 l0 23 -384 0 -385
0 -10 -52 c-13 -58 -49 -143 -82 -190 l-22 -30 105 -104 104 -105 37 16 c20 8
62 15 94 15 211 0 318 -264 168 -415 -74 -73 -202 -92 -288 -42 -52 31 -91 74
-112 124 -19 46 -19 134 0 180 l16 37 -104 104 -104 104 -44 -31 c-43 -29
-180 -81 -213 -81 -15 0 -16 -39 -14 -382 l3 -382 41 -12 c136 -39 237 -147
268 -289 52 -228 -114 -448 -349 -463 -347 -22 -543 390 -307 645 52 56 178
123 215 115 4 -1 7 170 7 381 l0 383 -67 18 c-69 18 -155 57 -186 84 -17 15
-25 9 -121 -87 l-104 -104 15 -41 c42 -118 -4 -238 -114 -303 -36 -21 -58 -26
-112 -26 -73 -1 -125 20 -175 69 -61 62 -82 135 -64 229 10 52 18 67 62 110
75 74 174 97 263 60 l37 -16 105 105 c99 99 104 106 89 123 -26 28 -76 142
-89 200 l-12 53 -381 0 -382 0 -1 -22 c-1 -12 -16 -50 -33 -84 -100 -203 -343
-279 -538 -167 -211 121 -255 412 -91 594 197 218 570 131 654 -154 l12 -42
381 -3 381 -2 10 52 c13 58 49 143 82 190 l22 30 -105 104 -104 105 -38 -16
c-90 -38 -205 -9 -271 68 -131 153 -30 391 169 401 177 10 308 -171 241 -332
l-16 -36 105 -105 105 -104 33 25 c48 36 172 84 226 87 10 1 12 81 10 382 l-3
382 -40 12 c-67 20 -118 51 -168 101 -41 42 -86 113 -94 149 -1 6 -5 21 -8 35
-20 79 -9 175 30 254 87 175 283 257 468 195z"/>
<path d="M2453 4476 c-206 -98 -211 -372 -9 -479 58 -30 175 -30 231 0 165 88
200 294 73 424 -50 50 -102 72 -178 76 -53 3 -75 -1 -117 -21z"/>
<path d="M1775 3431 c-47 -14 -94 -72 -90 -111 1 -8 3 -26 3 -38 1 -13 17 -39
36 -58 28 -28 42 -34 75 -34 82 0 131 49 131 128 0 76 -82 136 -155 113z"/>
<path d="M3265 3425 c-66 -28 -94 -98 -65 -163 44 -99 184 -96 226 4 14 33 12
61 -6 104 -23 53 -98 80 -155 55z"/>
<path d="M2485 2965 c-312 -59 -444 -434 -238 -674 93 -110 256 -165 401 -137
87 17 197 91 251 169 81 118 95 281 35 407 -53 112 -126 179 -239 218 -76 27
-134 31 -210 17z"/>
<path d="M801 2810 c-116 -39 -188 -147 -179 -268 20 -270 377 -339 500 -97
12 22 23 67 26 101 14 183 -171 324 -347 264z"/>
<path d="M4177 2818 c-76 -16 -139 -67 -180 -143 -30 -56 -30 -173 0 -230 50
-95 136 -148 238 -148 144 1 249 99 262 243 16 175 -146 316 -320 278z"/>
<path d="M1735 1908 c-80 -62 -61 -183 33 -216 79 -27 162 29 162 109 0 80
-49 129 -128 129 -25 0 -49 -8 -67 -22z"/>
<path d="M3260 1923 c-68 -27 -93 -134 -45 -191 60 -71 165 -60 204 22 42 85
-12 177 -102 175 -23 0 -49 -3 -57 -6z"/>
<path d="M2488 1141 c-120 -39 -199 -151 -193 -277 5 -87 71 -181 156 -222 56
-26 166 -26 221 1 200 99 202 378 3 479 -43 23 -144 33 -187 19z"/>
</g>
</svg>
