<?xml version="1.0" standalone="no"?>
<!DOCTYPE svg PUBLIC "-//W3C//DTD SVG 20010904//EN"
 "http://www.w3.org/TR/2001/REC-SVG-20010904/DTD/svg10.dtd">
<svg version="1.0" xmlns="http://www.w3.org/2000/svg"
 width="512.000000pt" height="512.000000pt" viewBox="0 0 512.000000 512.000000"
 preserveAspectRatio="xMidYMid meet">

<g transform="translate(0.000000,512.000000) scale(0.100000,-0.100000)"
fill="#000000" stroke="none">
<path d="M3601 4296 l-383 -383 48 -7 c263 -38 490 -218 591 -466 53 -131 54
-159 50 -916 -3 -781 0 -741 -78 -899 -93 -190 -258 -327 -466 -387 -78 -23
-80 -23 -803 -23 -813 0 -778 -3 -935 74 -205 102 -348 284 -399 512 l-22 98
-383 -383 -384 -384 39 -54 c65 -90 138 -180 207 -255 614 -669 1545 -958
2442 -758 849 189 1541 799 1841 1623 116 319 170 702 146 1037 -56 765 -414
1427 -1017 1880 -55 41 -102 75 -105 75 -3 0 -178 -173 -389 -384z"/>
<path d="M2770 3466 c-202 -203 -204 -206 -170 -206 62 0 166 -28 242 -63 186
-87 316 -239 379 -447 29 -94 31 -251 5 -350 -37 -143 -129 -291 -234 -375
-71 -57 -196 -119 -282 -142 -86 -22 -235 -21 -320 1 -206 56 -388 215 -467
409 -29 71 -53 175 -53 232 l0 40 -211 -210 -211 -210 6 -95 c15 -273 175
-488 426 -573 64 -21 78 -22 646 -25 657 -3 668 -2 812 68 113 56 206 149 262
262 70 144 71 155 68 812 -3 568 -4 582 -25 646 -85 251 -300 411 -573 426
l-95 6 -205 -206z m608 -38 c63 -39 90 -136 58 -212 -20 -48 -77 -88 -134 -93
-122 -11 -216 117 -168 230 40 94 155 130 244 75z"/>
<path d="M2415 2989 c-164 -57 -278 -192 -308 -364 -32 -186 73 -384 249 -471
64 -32 85 -37 167 -42 150 -8 263 35 358 135 96 101 141 244 120 377 -38 231
-220 387 -449 386 -51 -1 -97 -8 -137 -21z"/>
</g>
</svg>
